<svg width="17" height="17" viewBox="0 0 17 17" fill="none" xmlns="http://www.w3.org/2000/svg">
<g id="add">
<path id="Icon" fill-rule="evenodd" clip-rule="evenodd" d="M8.50033 2.69336C8.86852 2.69336 9.16699 2.99184 9.16699 3.36003V7.36003H13.167C13.5352 7.36003 13.8337 7.65851 13.8337 8.0267C13.8337 8.39489 13.5352 8.69336 13.167 8.69336H9.16699V12.6934C9.16699 13.0616 8.86852 13.36 8.50033 13.36C8.13214 13.36 7.83366 13.0616 7.83366 12.6934V8.69336H3.83366C3.46547 8.69336 3.16699 8.39489 3.16699 8.0267C3.16699 7.65851 3.46547 7.36003 3.83366 7.36003H7.83366V3.36003C7.83366 2.99184 8.13214 2.69336 8.50033 2.69336Z" fill="#F8F8F9"/>
</g>
</svg>
