<svg width="25" height="31" viewBox="0 0 25 31" fill="none" xmlns="http://www.w3.org/2000/svg">
<path d="M6.75 3.75L7.59115 13.4233C7.68102 14.4568 8.54622 15.25 9.58363 15.25H14.4164C15.4538 15.25 16.319 14.4568 16.4088 13.4233L17.25 3.75" stroke="#AE1100" stroke-width="1.5" stroke-linecap="round" stroke-linejoin="round"/>
<path d="M9.75 3.5V2.75C9.75 1.64543 10.6454 0.75 11.75 0.75H12.25C13.3546 0.75 14.25 1.64543 14.25 2.75V3.5" stroke="#AE1100" stroke-width="1.5" stroke-linecap="round" stroke-linejoin="round"/>
<path d="M5 3.75H19" stroke="#AE1100" stroke-width="1.5" stroke-linecap="round" stroke-linejoin="round"/>
<path d="M1.104 28C0.96 28 0.848 27.9627 0.768 27.888C0.693333 27.808 0.656 27.696 0.656 27.552V22.808C0.656 22.664 0.693333 22.5547 0.768 22.48C0.848 22.4 0.96 22.36 1.104 22.36H4.024C4.136 22.36 4.22133 22.3893 4.28 22.448C4.33867 22.5013 4.368 22.5813 4.368 22.688C4.368 22.8 4.33867 22.8853 4.28 22.944C4.22133 23.0027 4.136 23.032 4.024 23.032H1.456V24.8H3.848C3.96533 24.8 4.05067 24.8293 4.104 24.888C4.16267 24.9467 4.192 25.0293 4.192 25.136C4.192 25.248 4.16267 25.3333 4.104 25.392C4.05067 25.4453 3.96533 25.472 3.848 25.472H1.456V27.328H4.024C4.136 27.328 4.22133 27.3573 4.28 27.416C4.33867 27.4747 4.368 27.5573 4.368 27.664C4.368 27.776 4.33867 27.8613 4.28 27.92C4.22133 27.9733 4.136 28 4.024 28H1.104ZM5.41494 28.048C5.31894 28.048 5.23894 28.0213 5.17494 27.968C5.11627 27.9093 5.08427 27.8373 5.07894 27.752C5.07894 27.6667 5.11627 27.5733 5.19094 27.472L6.54294 25.784V26.184L5.27894 24.608C5.1936 24.512 5.1536 24.4213 5.15894 24.336C5.16427 24.2453 5.19894 24.1733 5.26294 24.12C5.32694 24.0667 5.40427 24.04 5.49494 24.04C5.59627 24.04 5.67894 24.0587 5.74294 24.096C5.81227 24.128 5.87627 24.184 5.93494 24.264L6.99894 25.616H6.71094L7.78294 24.264C7.8416 24.184 7.90294 24.128 7.96694 24.096C8.03627 24.0587 8.11894 24.04 8.21494 24.04C8.31094 24.04 8.38827 24.0693 8.44694 24.128C8.51094 24.1813 8.54294 24.2533 8.54294 24.344C8.54827 24.4293 8.51094 24.52 8.43094 24.616L7.16694 26.168V25.808L8.51894 27.472C8.59894 27.568 8.63627 27.6613 8.63094 27.752C8.63094 27.8373 8.59894 27.9093 8.53494 27.968C8.47094 28.0213 8.39094 28.048 8.29494 28.048C8.19894 28.048 8.11627 28.0293 8.04694 27.992C7.98294 27.9547 7.91894 27.8987 7.85494 27.824L6.71094 26.384H6.98294L5.84694 27.824C5.78827 27.8933 5.72427 27.9493 5.65494 27.992C5.59094 28.0293 5.51094 28.048 5.41494 28.048ZM11.1786 28.072C10.7786 28.072 10.432 27.9893 10.1386 27.824C9.85063 27.6533 9.62663 27.416 9.46663 27.112C9.30663 26.8027 9.22663 26.44 9.22663 26.024C9.22663 25.7147 9.27196 25.4373 9.36263 25.192C9.45329 24.9413 9.58129 24.7307 9.74663 24.56C9.91729 24.3893 10.1226 24.2587 10.3626 24.168C10.608 24.072 10.88 24.024 11.1786 24.024C11.3653 24.024 11.56 24.0533 11.7626 24.112C11.9706 24.1653 12.1626 24.256 12.3386 24.384C12.408 24.4267 12.4506 24.48 12.4666 24.544C12.488 24.6027 12.4906 24.664 12.4746 24.728C12.464 24.792 12.4346 24.848 12.3866 24.896C12.344 24.9387 12.2906 24.9653 12.2266 24.976C12.1626 24.9813 12.0933 24.9627 12.0186 24.92C11.8906 24.8293 11.76 24.7653 11.6266 24.728C11.4933 24.6853 11.3653 24.664 11.2426 24.664C11.0506 24.664 10.88 24.696 10.7306 24.76C10.5866 24.8187 10.464 24.9067 10.3626 25.024C10.2613 25.136 10.184 25.2773 10.1306 25.448C10.0826 25.6187 10.0586 25.8133 10.0586 26.032C10.0586 26.4693 10.16 26.8133 10.3626 27.064C10.5706 27.3093 10.864 27.432 11.2426 27.432C11.3653 27.432 11.4933 27.4133 11.6266 27.376C11.76 27.3387 11.8906 27.2747 12.0186 27.184C12.0933 27.1413 12.1626 27.1253 12.2266 27.136C12.2906 27.1467 12.3413 27.176 12.3786 27.224C12.4213 27.2667 12.448 27.32 12.4586 27.384C12.4746 27.4427 12.472 27.504 12.4506 27.568C12.4293 27.632 12.384 27.6853 12.3146 27.728C12.144 27.8507 11.9573 27.9387 11.7546 27.992C11.5573 28.0453 11.3653 28.072 11.1786 28.072ZM14.449 28.072C14.033 28.072 13.7183 27.952 13.505 27.712C13.297 27.4667 13.193 27.1147 13.193 26.656V22.712C13.193 22.5787 13.2277 22.4773 13.297 22.408C13.3663 22.3387 13.465 22.304 13.593 22.304C13.721 22.304 13.8197 22.3387 13.889 22.408C13.9637 22.4773 14.001 22.5787 14.001 22.712V26.608C14.001 26.8747 14.0543 27.0747 14.161 27.208C14.273 27.336 14.433 27.4 14.641 27.4C14.689 27.4 14.7317 27.4 14.769 27.4C14.8063 27.3947 14.8437 27.3893 14.881 27.384C14.945 27.3787 14.9903 27.3973 15.017 27.44C15.0437 27.4773 15.057 27.5573 15.057 27.68C15.057 27.792 15.033 27.88 14.985 27.944C14.937 28.0027 14.8597 28.04 14.753 28.056C14.705 28.0613 14.6543 28.064 14.601 28.064C14.5477 28.0693 14.497 28.072 14.449 28.072ZM17.0303 28.072C16.7156 28.072 16.4516 28.0133 16.2383 27.896C16.0303 27.7787 15.873 27.6053 15.7663 27.376C15.665 27.1413 15.6143 26.848 15.6143 26.496V24.448C15.6143 24.3093 15.649 24.208 15.7183 24.144C15.7876 24.0747 15.8863 24.04 16.0143 24.04C16.1423 24.04 16.241 24.0747 16.3103 24.144C16.385 24.208 16.4223 24.3093 16.4223 24.448V26.504C16.4223 26.8187 16.4863 27.0507 16.6143 27.2C16.7423 27.3493 16.945 27.424 17.2223 27.424C17.5263 27.424 17.7716 27.3227 17.9583 27.12C18.1503 26.912 18.2463 26.64 18.2463 26.304V24.448C18.2463 24.3093 18.281 24.208 18.3503 24.144C18.4196 24.0747 18.521 24.04 18.6543 24.04C18.7823 24.04 18.881 24.0747 18.9503 24.144C19.0196 24.208 19.0543 24.3093 19.0543 24.448V27.648C19.0543 27.92 18.9236 28.056 18.6623 28.056C18.5396 28.056 18.4436 28.0213 18.3743 27.952C18.305 27.8773 18.2703 27.776 18.2703 27.648V26.968L18.3743 27.144C18.2676 27.4427 18.097 27.672 17.8623 27.832C17.6276 27.992 17.3503 28.072 17.0303 28.072ZM20.593 28.048C20.465 28.048 20.3663 28.0107 20.297 27.936C20.2277 27.856 20.193 27.7467 20.193 27.608V24.488C20.193 24.3493 20.2277 24.2427 20.297 24.168C20.3663 24.0933 20.465 24.056 20.593 24.056C20.721 24.056 20.8197 24.0933 20.889 24.168C20.9637 24.2427 21.001 24.3493 21.001 24.488V27.608C21.001 27.7467 20.9663 27.856 20.897 27.936C20.8277 28.0107 20.7263 28.048 20.593 28.048ZM20.593 23.224C20.433 23.224 20.3077 23.184 20.217 23.104C20.1317 23.024 20.089 22.912 20.089 22.768C20.089 22.6187 20.1317 22.5067 20.217 22.432C20.3077 22.352 20.433 22.312 20.593 22.312C20.753 22.312 20.8757 22.352 20.961 22.432C21.0517 22.5067 21.097 22.6187 21.097 22.768C21.097 22.912 21.0517 23.024 20.961 23.104C20.8757 23.184 20.753 23.224 20.593 23.224ZM22.5463 28.056C22.413 28.056 22.3116 28.0213 22.2423 27.952C22.173 27.8773 22.1383 27.776 22.1383 27.648V24.448C22.1383 24.3147 22.173 24.2133 22.2423 24.144C22.3116 24.0747 22.4076 24.04 22.5303 24.04C22.6583 24.04 22.7543 24.0747 22.8183 24.144C22.8876 24.2133 22.9223 24.3147 22.9223 24.448V25.032H22.8423C22.9276 24.712 23.085 24.4693 23.3143 24.304C23.5436 24.1387 23.837 24.0427 24.1943 24.016C24.2903 24.0107 24.365 24.0347 24.4183 24.088C24.477 24.1413 24.509 24.224 24.5143 24.336C24.525 24.448 24.501 24.5387 24.4423 24.608C24.3836 24.672 24.293 24.7093 24.1703 24.72L24.0183 24.736C23.6716 24.768 23.4076 24.8773 23.2263 25.064C23.045 25.2507 22.9543 25.5067 22.9543 25.832V27.648C22.9543 27.776 22.9196 27.8773 22.8503 27.952C22.7863 28.0213 22.685 28.056 22.5463 28.056Z" fill="#AE1100"/>
</svg>
