<svg width="26" height="32" viewBox="0 0 26 32" fill="none" xmlns="http://www.w3.org/2000/svg">
<g clip-path="url(#clip0_83574_3209)">
<path d="M7.25 3.8252L8.09115 13.4985C8.18102 14.532 9.04622 15.3252 10.0836 15.3252H14.9164C15.9538 15.3252 16.819 14.532 16.9088 13.4985L17.75 3.8252" stroke="#AE1100" stroke-width="1.5" stroke-linecap="round" stroke-linejoin="round"/>
<path d="M10.25 3.5752V2.8252C10.25 1.72063 11.1454 0.825195 12.25 0.825195H12.75C13.8546 0.825195 14.75 1.72063 14.75 2.8252V3.5752" stroke="#AE1100" stroke-width="1.5" stroke-linecap="round" stroke-linejoin="round"/>
<path d="M5.5 3.8252H19.5" stroke="#AE1100" stroke-width="1.5" stroke-linecap="round" stroke-linejoin="round"/>
</g>
<path d="M1.604 28.0752C1.46 28.0752 1.348 28.0379 1.268 27.9632C1.19333 27.8832 1.156 27.7712 1.156 27.6272V22.8832C1.156 22.7392 1.19333 22.6299 1.268 22.5552C1.348 22.4752 1.46 22.4352 1.604 22.4352H4.524C4.636 22.4352 4.72133 22.4645 4.78 22.5232C4.83867 22.5765 4.868 22.6565 4.868 22.7632C4.868 22.8752 4.83867 22.9605 4.78 23.0192C4.72133 23.0779 4.636 23.1072 4.524 23.1072H1.956V24.8752H4.348C4.46533 24.8752 4.55067 24.9045 4.604 24.9632C4.66267 25.0219 4.692 25.1045 4.692 25.2112C4.692 25.3232 4.66267 25.4085 4.604 25.4672C4.55067 25.5205 4.46533 25.5472 4.348 25.5472H1.956V27.4032H4.524C4.636 27.4032 4.72133 27.4325 4.78 27.4912C4.83867 27.5499 4.868 27.6325 4.868 27.7392C4.868 27.8512 4.83867 27.9365 4.78 27.9952C4.72133 28.0485 4.636 28.0752 4.524 28.0752H1.604ZM5.91494 28.1232C5.81894 28.1232 5.73894 28.0965 5.67494 28.0432C5.61627 27.9845 5.58427 27.9125 5.57894 27.8272C5.57894 27.7419 5.61627 27.6485 5.69094 27.5472L7.04294 25.8592V26.2592L5.77894 24.6832C5.6936 24.5872 5.6536 24.4965 5.65894 24.4112C5.66427 24.3205 5.69894 24.2485 5.76294 24.1952C5.82694 24.1419 5.90427 24.1152 5.99494 24.1152C6.09627 24.1152 6.17894 24.1339 6.24294 24.1712C6.31227 24.2032 6.37627 24.2592 6.43494 24.3392L7.49894 25.6912H7.21094L8.28294 24.3392C8.3416 24.2592 8.40294 24.2032 8.46694 24.1712C8.53627 24.1339 8.61894 24.1152 8.71494 24.1152C8.81094 24.1152 8.88827 24.1445 8.94694 24.2032C9.01094 24.2565 9.04294 24.3285 9.04294 24.4192C9.04827 24.5045 9.01094 24.5952 8.93094 24.6912L7.66694 26.2432V25.8832L9.01894 27.5472C9.09894 27.6432 9.13627 27.7365 9.13094 27.8272C9.13094 27.9125 9.09894 27.9845 9.03494 28.0432C8.97094 28.0965 8.89094 28.1232 8.79494 28.1232C8.69894 28.1232 8.61627 28.1045 8.54694 28.0672C8.48294 28.0299 8.41894 27.9739 8.35494 27.8992L7.21094 26.4592H7.48294L6.34694 27.8992C6.28827 27.9685 6.22427 28.0245 6.15494 28.0672C6.09094 28.1045 6.01094 28.1232 5.91494 28.1232ZM11.6786 28.1472C11.2786 28.1472 10.932 28.0645 10.6386 27.8992C10.3506 27.7285 10.1266 27.4912 9.96663 27.1872C9.80663 26.8779 9.72663 26.5152 9.72663 26.0992C9.72663 25.7899 9.77196 25.5125 9.86263 25.2672C9.95329 25.0165 10.0813 24.8059 10.2466 24.6352C10.4173 24.4645 10.6226 24.3339 10.8626 24.2432C11.108 24.1472 11.38 24.0992 11.6786 24.0992C11.8653 24.0992 12.06 24.1285 12.2626 24.1872C12.4706 24.2405 12.6626 24.3312 12.8386 24.4592C12.908 24.5019 12.9506 24.5552 12.9666 24.6192C12.988 24.6779 12.9906 24.7392 12.9746 24.8032C12.964 24.8672 12.9346 24.9232 12.8866 24.9712C12.844 25.0139 12.7906 25.0405 12.7266 25.0512C12.6626 25.0565 12.5933 25.0379 12.5186 24.9952C12.3906 24.9045 12.26 24.8405 12.1266 24.8032C11.9933 24.7605 11.8653 24.7392 11.7426 24.7392C11.5506 24.7392 11.38 24.7712 11.2306 24.8352C11.0866 24.8939 10.964 24.9819 10.8626 25.0992C10.7613 25.2112 10.684 25.3525 10.6306 25.5232C10.5826 25.6939 10.5586 25.8885 10.5586 26.1072C10.5586 26.5445 10.66 26.8885 10.8626 27.1392C11.0706 27.3845 11.364 27.5072 11.7426 27.5072C11.8653 27.5072 11.9933 27.4885 12.1266 27.4512C12.26 27.4139 12.3906 27.3499 12.5186 27.2592C12.5933 27.2165 12.6626 27.2005 12.7266 27.2112C12.7906 27.2219 12.8413 27.2512 12.8786 27.2992C12.9213 27.3419 12.948 27.3952 12.9586 27.4592C12.9746 27.5179 12.972 27.5792 12.9506 27.6432C12.9293 27.7072 12.884 27.7605 12.8146 27.8032C12.644 27.9259 12.4573 28.0139 12.2546 28.0672C12.0573 28.1205 11.8653 28.1472 11.6786 28.1472ZM14.949 28.1472C14.533 28.1472 14.2183 28.0272 14.005 27.7872C13.797 27.5419 13.693 27.1899 13.693 26.7312V22.7872C13.693 22.6539 13.7277 22.5525 13.797 22.4832C13.8663 22.4139 13.965 22.3792 14.093 22.3792C14.221 22.3792 14.3197 22.4139 14.389 22.4832C14.4637 22.5525 14.501 22.6539 14.501 22.7872V26.6832C14.501 26.9499 14.5543 27.1499 14.661 27.2832C14.773 27.4112 14.933 27.4752 15.141 27.4752C15.189 27.4752 15.2317 27.4752 15.269 27.4752C15.3063 27.4699 15.3437 27.4645 15.381 27.4592C15.445 27.4539 15.4903 27.4725 15.517 27.5152C15.5437 27.5525 15.557 27.6325 15.557 27.7552C15.557 27.8672 15.533 27.9552 15.485 28.0192C15.437 28.0779 15.3597 28.1152 15.253 28.1312C15.205 28.1365 15.1543 28.1392 15.101 28.1392C15.0477 28.1445 14.997 28.1472 14.949 28.1472ZM17.5303 28.1472C17.2156 28.1472 16.9516 28.0885 16.7383 27.9712C16.5303 27.8539 16.373 27.6805 16.2663 27.4512C16.165 27.2165 16.1143 26.9232 16.1143 26.5712V24.5232C16.1143 24.3845 16.149 24.2832 16.2183 24.2192C16.2876 24.1499 16.3863 24.1152 16.5143 24.1152C16.6423 24.1152 16.741 24.1499 16.8103 24.2192C16.885 24.2832 16.9223 24.3845 16.9223 24.5232V26.5792C16.9223 26.8939 16.9863 27.1259 17.1143 27.2752C17.2423 27.4245 17.445 27.4992 17.7223 27.4992C18.0263 27.4992 18.2716 27.3979 18.4583 27.1952C18.6503 26.9872 18.7463 26.7152 18.7463 26.3792V24.5232C18.7463 24.3845 18.781 24.2832 18.8503 24.2192C18.9196 24.1499 19.021 24.1152 19.1543 24.1152C19.2823 24.1152 19.381 24.1499 19.4503 24.2192C19.5196 24.2832 19.5543 24.3845 19.5543 24.5232V27.7232C19.5543 27.9952 19.4236 28.1312 19.1623 28.1312C19.0396 28.1312 18.9436 28.0965 18.8743 28.0272C18.805 27.9525 18.7703 27.8512 18.7703 27.7232V27.0432L18.8743 27.2192C18.7676 27.5179 18.597 27.7472 18.3623 27.9072C18.1276 28.0672 17.8503 28.1472 17.5303 28.1472ZM21.093 28.1232C20.965 28.1232 20.8663 28.0859 20.797 28.0112C20.7277 27.9312 20.693 27.8219 20.693 27.6832V24.5632C20.693 24.4245 20.7277 24.3179 20.797 24.2432C20.8663 24.1685 20.965 24.1312 21.093 24.1312C21.221 24.1312 21.3197 24.1685 21.389 24.2432C21.4637 24.3179 21.501 24.4245 21.501 24.5632V27.6832C21.501 27.8219 21.4663 27.9312 21.397 28.0112C21.3277 28.0859 21.2263 28.1232 21.093 28.1232ZM21.093 23.2992C20.933 23.2992 20.8077 23.2592 20.717 23.1792C20.6317 23.0992 20.589 22.9872 20.589 22.8432C20.589 22.6939 20.6317 22.5819 20.717 22.5072C20.8077 22.4272 20.933 22.3872 21.093 22.3872C21.253 22.3872 21.3757 22.4272 21.461 22.5072C21.5517 22.5819 21.597 22.6939 21.597 22.8432C21.597 22.9872 21.5517 23.0992 21.461 23.1792C21.3757 23.2592 21.253 23.2992 21.093 23.2992ZM23.0463 28.1312C22.913 28.1312 22.8116 28.0965 22.7423 28.0272C22.673 27.9525 22.6383 27.8512 22.6383 27.7232V24.5232C22.6383 24.3899 22.673 24.2885 22.7423 24.2192C22.8116 24.1499 22.9076 24.1152 23.0303 24.1152C23.1583 24.1152 23.2543 24.1499 23.3183 24.2192C23.3876 24.2885 23.4223 24.3899 23.4223 24.5232V25.1072H23.3423C23.4276 24.7872 23.585 24.5445 23.8143 24.3792C24.0436 24.2139 24.337 24.1179 24.6943 24.0912C24.7903 24.0859 24.865 24.1099 24.9183 24.1632C24.977 24.2165 25.009 24.2992 25.0143 24.4112C25.025 24.5232 25.001 24.6139 24.9423 24.6832C24.8836 24.7472 24.793 24.7845 24.6703 24.7952L24.5183 24.8112C24.1716 24.8432 23.9076 24.9525 23.7263 25.1392C23.545 25.3259 23.4543 25.5819 23.4543 25.9072V27.7232C23.4543 27.8512 23.4196 27.9525 23.3503 28.0272C23.2863 28.0965 23.185 28.1312 23.0463 28.1312Z" fill="#AE1100"/>
<defs>
<clipPath id="clip0_83574_3209">
<rect width="17" height="16" fill="white" transform="translate(4.5 0.0751953)"/>
</clipPath>
</defs>
</svg>
